<svg version="1.1" id="Layer_1" xmlns="http://www.w3.org/2000/svg" xmlns:xlink="http://www.w3.org/1999/xlink" x="0px" y="0px"
	 width="100%" viewBox="0 0 940 788" enable-background="new 0 0 940 788" xml:space="preserve">
<path fill="#000000" opacity="1.000000" stroke="none" 
	d="
M650.000000,789.000000 
	C433.333405,789.000000 217.166794,789.000000 1.000145,789.000000 
	C1.000097,526.333496 1.000097,263.666962 1.000048,1.000321 
	C314.333099,1.000214 627.666199,1.000214 940.999451,1.000107 
	C940.999634,263.666351 940.999634,526.332703 940.999817,788.999512 
	C844.166687,789.000000 747.333313,789.000000 650.000000,789.000000 
M136.733047,218.371353 
	C135.932205,218.334869 134.975220,217.991608 134.353897,218.307846 
	C124.593712,223.275223 114.791481,228.171341 105.181488,233.418243 
	C99.299454,236.629730 93.833359,240.597595 87.987213,243.881760 
	C82.021004,247.233383 78.718422,250.868805 78.741676,258.879364 
	C79.108704,385.338959 78.999565,511.799957 78.999619,638.260620 
	C78.999619,640.355713 78.999619,642.450745 78.999619,645.207947 
	C80.878693,644.381165 82.101143,643.960693 83.209557,643.337402 
	C93.848801,637.354980 104.373970,631.162231 115.118790,625.377014 
	C127.951836,618.467407 140.775879,611.485962 153.974258,605.329834 
	C162.445724,601.378479 171.581314,598.848328 180.427841,595.705383 
	C183.605042,594.576599 186.828918,593.577271 189.993652,592.415833 
	C195.608917,590.355042 201.218658,588.274841 206.783218,586.082275 
	C209.289658,585.094666 211.577805,583.387390 214.148544,582.764954 
	C218.821167,581.633667 223.738831,581.459900 228.360443,580.184326 
	C237.279526,577.722778 246.200348,575.766174 255.432938,574.563232 
	C264.909119,573.328552 274.111389,570.027100 283.895081,570.947021 
	C284.662903,571.019104 285.467712,570.500427 286.273193,570.400269 
	C295.526428,569.250610 304.758545,567.801147 314.046783,567.105835 
	C321.171295,566.572510 328.367798,566.983826 335.532104,567.011597 
	C337.188263,567.018005 338.863586,567.040527 340.496307,567.283081 
	C348.560486,568.480774 356.603241,569.827942 364.678375,570.942383 
	C366.369049,571.175781 368.253174,570.213806 369.896637,570.548035 
	C378.396149,572.276184 386.846375,574.246521 396.421509,576.379028 
	C395.445740,571.889771 393.355438,569.570007 390.165833,567.937805 
	C387.057587,566.347168 383.992676,564.671631 380.914734,563.022217 
	C376.620850,560.721130 372.441071,558.168457 368.009613,556.174255 
	C364.039490,554.387634 359.800293,553.195129 355.669159,551.771362 
	C353.160797,550.906921 350.624390,550.123718 348.114197,549.264404 
	C340.089996,546.517456 332.127777,543.569153 324.018433,541.103638 
	C321.534576,540.348389 317.663544,542.002808 316.143341,540.640076 
	C311.812866,536.758118 306.932709,537.695496 302.097046,537.423828 
	C299.373932,537.270813 296.620667,537.301514 293.936188,536.889648 
	C288.636139,536.076477 283.395020,534.876160 278.092804,534.080750 
	C265.939850,532.257507 254.160995,536.247986 242.111938,536.670288 
	C234.510742,536.936646 226.936569,539.174438 219.442932,540.924683 
	C213.572205,542.295776 207.829163,544.228455 202.056122,545.998779 
	C196.359665,547.745789 190.642685,549.451965 185.039429,551.467163 
	C181.659439,552.682800 178.533020,554.585876 175.197128,555.945618 
	C169.451416,558.287842 163.686111,560.606384 157.823334,562.628418 
	C153.770142,564.026367 149.575836,565.600708 145.377121,565.823181 
	C141.341629,566.036987 138.260101,563.506226 137.971115,557.997620 
	C137.980713,446.382935 137.993317,334.768219 137.965317,223.153549 
	C137.964966,221.769150 137.444199,220.384903 136.733047,218.371353 
M458.844360,253.479752 
	C458.840057,234.663269 458.835754,215.846802 458.751770,196.361908 
	C453.950500,192.099075 449.266235,187.694901 444.323303,183.603195 
	C434.404022,175.392151 424.572449,167.044540 414.256134,159.355087 
	C407.972992,154.671829 400.960388,150.917892 394.081482,147.095673 
	C385.388153,142.265305 376.621185,137.531906 367.655975,133.236862 
	C359.219940,129.195343 350.631165,125.371513 341.837830,122.207161 
	C334.016876,119.392731 325.823883,117.611923 317.793457,115.380760 
	C317.317017,115.248390 316.830444,115.106972 316.341339,115.072388 
	C306.442383,114.372414 296.551575,113.430794 286.639862,113.073341 
	C277.153076,112.731209 267.642883,112.904961 258.145752,113.041824 
	C253.866684,113.103493 249.590454,113.582611 245.319931,113.952934 
	C241.368195,114.295609 237.421661,114.710625 233.481598,115.168953 
	C232.202911,115.317696 230.760498,116.250175 229.721390,115.886307 
	C225.320953,114.345398 221.861145,116.576912 218.186646,118.202217 
	C217.352570,118.571144 216.363419,118.604691 215.439087,118.751328 
	C213.122086,119.118896 210.770905,119.329773 208.490234,119.851723 
	C205.939163,120.435547 203.459351,121.324791 200.929764,122.012039 
	C200.142059,122.226059 199.201889,122.015022 198.487701,122.340881 
	C194.545975,124.139435 190.745880,126.282463 186.720963,127.856682 
	C180.527863,130.278900 174.135864,132.191315 167.935013,134.595398 
	C163.376450,136.362747 160.871353,139.019394 160.882111,144.907730 
	C161.114441,272.228973 161.058884,399.550720 161.059128,526.872375 
	C161.059143,528.205566 161.025848,529.540100 161.072083,530.871765 
	C161.162750,533.483643 162.320282,534.417603 164.955948,533.539490 
	C169.248810,532.109192 173.751190,531.208191 177.893478,529.445435 
	C187.753967,525.249329 197.763016,521.565796 208.191971,519.074951 
	C209.149750,518.846191 210.465866,519.249512 211.114258,518.731628 
	C216.129288,514.725952 223.221542,517.868530 228.127701,513.677673 
	C236.127380,516.077271 243.198303,510.759552 251.429153,511.371185 
	C266.318970,512.477661 281.403503,510.912720 296.408966,510.556122 
	C299.425995,510.484436 302.517822,510.484436 305.462646,511.043823 
	C313.245239,512.522156 320.965729,514.327393 328.711731,515.998779 
	C334.978973,517.351074 341.277924,518.572998 347.503876,520.093933 
	C351.253479,521.009888 355.002686,522.120178 358.554718,523.612732 
	C366.289429,526.862854 373.928528,530.347168 381.546783,533.865479 
	C386.413391,536.113098 391.235138,538.476074 395.962830,541.001038 
	C400.744568,543.554871 405.489044,546.209106 410.064850,549.110962 
	C417.562134,553.865723 425.033813,558.680603 432.284912,563.798096 
	C439.262512,568.722473 445.855682,574.192566 452.848694,579.093323 
	C454.022308,579.915771 456.368744,579.064697 458.846008,578.465942 
	C458.895294,553.032104 458.951324,527.598328 458.959320,502.164520 
	C458.959564,501.446167 458.447235,500.727692 457.862061,499.362000 
	C456.884003,499.098907 455.737762,498.374512 454.959137,498.658447 
	C452.528809,499.544586 450.343933,501.325409 447.872833,501.837738 
	C439.619995,503.548798 432.444641,508.680939 423.759369,509.104279 
	C421.571411,509.210938 419.513580,511.647827 417.308777,511.807068 
	C408.183624,512.466125 399.027374,512.838745 389.877869,512.957458 
	C384.942627,513.021606 379.979675,512.524841 375.063263,511.975983 
	C370.922882,511.513763 366.762329,510.878143 362.736816,509.833282 
	C357.976074,508.597534 353.340027,506.871918 348.670654,505.297211 
	C345.640869,504.275452 342.558411,503.341370 339.656677,502.022278 
	C332.598480,498.813690 325.093628,496.193481 318.761902,491.878754 
	C310.455414,486.218353 302.814453,479.468781 295.423462,472.609894 
	C288.373138,466.067108 282.622742,458.295868 277.957825,449.840057 
	C273.863129,442.417877 269.925873,434.904358 266.104706,427.337433 
	C263.927765,423.026550 260.019135,418.222260 260.606506,414.180176 
	C261.688660,406.733368 256.375946,401.076050 257.556458,393.487640 
	C258.987885,384.286713 257.193848,374.606842 257.070465,365.130585 
	C257.016785,361.009247 256.554352,356.356506 258.218292,352.871826 
	C260.898468,347.258911 259.655090,340.933929 262.840698,335.454987 
	C265.110321,331.551483 265.285461,326.458252 267.425415,322.445251 
	C271.675995,314.474152 276.505737,306.798920 281.335632,299.152649 
	C288.897644,287.181030 298.881042,277.318237 310.208923,269.082520 
	C321.092621,261.169739 332.186401,253.662674 345.578186,249.680710 
	C352.727478,247.554901 359.839508,244.868729 367.160675,243.539719 
	C376.930695,241.766144 386.885529,240.636475 396.803131,240.209122 
	C401.698029,239.998184 406.665985,242.671173 411.638855,242.826981 
	C421.114746,243.123871 429.841675,246.044052 438.536438,249.188721 
	C443.655731,251.040237 448.479950,253.707870 453.599548,255.558258 
	C454.779663,255.984818 456.626373,254.567093 458.844360,253.479752 
M779.940857,373.500000 
	C779.940857,295.179321 779.940857,216.858643 779.940857,138.429672 
	C776.005371,136.556915 772.243896,134.735962 768.454773,132.974609 
	C765.884949,131.780060 763.242920,130.738312 760.691528,129.507339 
	C754.386780,126.465515 747.098022,126.129898 741.072571,122.149040 
	C739.665466,121.219398 737.032288,122.385040 735.188171,121.833954 
	C728.747314,119.909248 722.404907,117.654732 716.024902,115.526321 
	C715.559082,115.370926 715.098511,115.120461 714.622925,115.085182 
	C705.048950,114.375137 695.482788,113.376068 685.895203,113.081795 
	C674.572937,112.734268 663.231201,112.932724 651.899353,113.042778 
	C648.626648,113.074554 645.363708,113.690460 642.087524,113.903999 
	C638.900574,114.111732 635.410950,113.364716 632.570557,114.422806 
	C626.865356,116.548073 620.045105,114.103279 615.075928,118.878128 
	C614.826111,119.118172 614.101074,118.794899 613.621460,118.876259 
	C611.342407,119.262878 609.042358,119.583710 606.807495,120.154076 
	C605.054871,120.601372 603.410583,121.458321 601.673218,121.984947 
	C600.286743,122.405212 598.741333,122.385353 597.425598,122.938950 
	C593.689514,124.510887 590.085205,126.398659 586.337891,127.940659 
	C578.327759,131.236816 570.080505,134.015717 562.275208,137.730957 
	C556.400208,140.527374 550.985168,144.333282 545.501465,147.899033 
	C535.687683,154.280289 525.549561,160.270065 516.333313,167.434937 
	C505.470581,175.879883 495.542511,185.517960 484.980682,194.365952 
	C482.473724,196.466095 482.014374,198.627533 482.022980,201.531143 
	C482.091248,224.530106 482.234253,247.531921 481.897491,270.526154 
	C481.837982,274.589386 484.314514,276.201813 486.296936,278.557800 
	C486.887817,279.259979 488.050110,279.493195 488.609650,280.208130 
	C495.492126,289.001831 502.757538,297.543671 508.994843,306.778168 
	C513.389893,313.285065 516.755798,320.584167 519.848999,327.841644 
	C522.191772,333.338501 523.388550,339.325012 525.074402,345.099762 
	C525.583313,346.843018 526.204895,348.580841 526.458313,350.366119 
	C527.185669,355.488586 527.153931,360.799255 528.518555,365.732178 
	C530.606750,373.280975 530.605164,380.518494 528.575134,388.038879 
	C527.261292,392.906219 525.666626,398.171112 526.309448,402.975281 
	C527.139771,409.180817 522.481873,413.468201 522.586975,419.484467 
	C522.661377,423.743958 519.035278,428.129578 516.856689,432.353455 
	C512.913269,439.999054 508.817169,447.565887 504.206085,456.256317 
	C508.688019,460.982300 513.845398,466.594086 519.191040,472.020386 
	C529.740234,482.728760 540.452209,493.277161 550.972351,504.013702 
	C554.631531,507.748199 557.248413,507.641266 561.867310,505.987579 
	C566.804199,504.220001 572.458984,503.016235 577.586670,503.564789 
	C585.011047,504.358948 591.607605,507.829346 596.212524,514.410095 
	C597.403076,516.111389 600.256775,517.945862 602.064636,517.694214 
	C609.986267,516.591553 617.852844,514.950378 625.644836,513.105042 
	C632.055298,511.586914 638.624939,511.224854 645.076477,509.912872 
	C650.067383,508.897919 655.474792,509.865753 660.693481,510.051758 
	C667.800842,510.305115 674.902527,510.745026 682.011169,510.925293 
	C686.100952,511.029022 690.250305,510.330902 694.283142,510.787170 
	C701.134827,511.562378 707.967712,512.721924 714.711670,514.170837 
	C721.486328,515.626343 728.129333,517.686157 734.859863,519.361206 
	C736.657349,519.808594 738.726807,519.419739 740.390137,520.101257 
	C745.498413,522.194397 750.388062,524.827820 755.517639,526.860352 
	C760.948975,529.012451 766.668762,530.449097 772.060242,532.685913 
	C778.188538,535.228455 779.939148,534.380798 779.939453,527.994446 
	C779.941895,476.829620 779.940857,425.664825 779.940857,373.500000 
M281.590790,309.918976 
	C278.193573,316.630219 274.125336,323.097473 271.573364,330.116028 
	C268.558167,338.408691 266.814270,347.167847 264.627197,355.752289 
	C264.341583,356.873260 264.780426,358.160400 264.739777,359.365723 
	C264.629700,362.631409 264.446045,365.894684 264.284485,369.158569 
	C264.054077,373.813965 263.580261,378.473236 263.662292,383.122894 
	C263.722076,386.513763 265.625061,390.228790 264.726135,393.200256 
	C263.195190,398.260834 265.348236,402.131348 266.785889,406.382751 
	C267.098175,407.306213 267.607025,408.170319 267.856628,409.106750 
	C269.225250,414.242493 270.014984,419.607513 272.008881,424.482635 
	C274.499359,430.571899 277.499451,436.570099 281.120117,442.052460 
	C286.636444,450.405273 292.452911,458.641357 298.942810,466.243225 
	C303.857849,472.000275 309.767548,477.011169 315.720001,481.743591 
	C319.747345,484.945465 324.568756,487.175964 329.124298,489.678345 
	C333.663635,492.171814 338.197388,494.736664 342.949554,496.764099 
	C347.586151,498.742157 352.481201,500.125946 357.296051,501.666718 
	C358.464447,502.040588 359.805481,501.855896 360.994598,502.187866 
	C364.065857,503.045532 367.048737,504.629120 370.152466,504.885010 
	C379.771484,505.678040 389.430634,506.361755 399.073578,506.353699 
	C405.448090,506.348389 411.942719,505.620483 418.160828,504.224182 
	C424.179077,502.872742 429.908783,500.241882 435.771851,498.191895 
	C440.589264,496.507568 445.771667,495.487396 450.158966,493.038300 
	C457.389343,489.002167 464.081207,484.007202 471.090302,479.558563 
	C471.702301,479.170074 473.325165,479.489563 473.901154,480.061584 
	C482.684631,488.784546 491.344452,497.631744 500.088715,506.394501 
	C510.628326,516.956421 521.121277,527.569031 531.872681,537.911987 
	C534.049988,540.006531 533.851501,541.785950 532.173889,543.088989 
	C527.483826,546.731873 525.889160,551.514160 526.064575,557.111755 
	C526.239807,562.702576 526.540466,567.995483 531.479675,572.248108 
	C537.801025,577.690735 543.459595,583.910400 549.331177,589.866699 
	C561.149292,601.855347 572.869629,613.940552 584.721130,625.895935 
	C596.780823,638.061462 608.952698,650.115662 621.069092,662.224976 
	C624.960449,666.114014 628.670288,670.202393 632.752197,673.878662 
	C638.012085,678.615845 644.651611,676.604553 650.786987,677.006470 
	C655.193359,677.295105 658.400146,675.011902 661.289001,672.149414 
	C669.607056,663.907166 677.623291,655.339905 686.253174,647.441162 
	C690.821106,643.260132 693.550293,638.046448 694.735413,632.623657 
	C696.172546,626.047424 692.325012,620.010010 687.845154,615.488770 
	C655.265991,582.608337 622.521057,549.890442 589.594727,517.357849 
	C586.118835,513.923523 581.297913,511.654602 576.765320,509.577515 
	C574.825806,508.688751 571.685608,508.980896 569.683838,509.954865 
	C564.924255,512.270630 560.518188,515.312988 555.600403,518.284729 
	C552.874634,515.217468 549.929260,511.508606 546.579895,508.209991 
	C537.402161,499.171387 528.044983,490.315033 518.777161,481.367676 
	C511.564270,474.404266 504.277374,467.511261 497.285187,460.332001 
	C496.173492,459.190582 495.526489,456.205017 496.225861,454.925293 
	C499.796936,448.391205 504.211212,442.312103 507.689880,435.735016 
	C511.047760,429.386353 513.809937,422.699249 516.495056,416.024536 
	C519.305664,409.037811 518.339600,401.073944 521.816040,394.200836 
	C522.093811,393.651550 522.010864,392.890442 522.000732,392.229218 
	C521.785339,378.178955 523.348022,364.003082 519.133301,350.231354 
	C518.179932,347.116272 517.051208,344.055298 516.052612,340.953522 
	C513.931824,334.365997 512.641907,327.361816 509.544739,321.274658 
	C505.441650,313.210571 500.344849,305.554047 494.910156,298.295044 
	C490.153870,291.942200 484.672577,286.028412 478.891357,280.578613 
	C474.058167,276.022522 468.414246,272.295074 462.948975,268.457520 
	C460.956665,267.058533 458.378265,266.526733 456.180603,265.381714 
	C449.018005,261.649933 442.173920,257.124634 434.690216,254.251358 
	C429.066650,252.092270 422.647583,252.005295 416.582733,250.995468 
	C415.774567,250.860916 414.953156,250.778351 414.161041,250.579514 
	C409.473389,249.402756 404.850372,247.842239 400.098450,247.071503 
	C386.378662,244.846252 373.368927,250.272934 359.921082,251.270218 
	C356.278290,251.540375 352.660065,253.137817 349.193817,254.531937 
	C345.205475,256.136047 341.347961,258.093292 337.523743,260.071350 
	C331.326111,263.277008 324.770844,266.027130 319.162720,270.073120 
	C313.020813,274.504242 308.055084,280.533478 302.084290,285.241669 
	C293.627686,291.909973 287.971527,300.713165 281.590790,309.918976 
M804.999573,247.500000 
	C804.999573,348.979980 805.002686,450.459961 804.995056,551.939941 
	C804.994202,563.693359 795.559570,569.759094 785.246887,564.660645 
	C777.294189,560.728882 769.549316,556.291443 761.352722,552.963867 
	C754.055969,550.001587 746.276611,548.217651 738.689270,545.985107 
	C734.513062,544.756226 730.308472,543.616150 726.090149,542.539917 
	C719.979919,540.981018 713.914246,538.967346 707.699219,538.190613 
	C703.003845,537.603882 698.482422,535.944092 693.222107,537.324524 
	C689.471313,538.308899 684.820862,535.119568 680.512451,534.885193 
	C672.477478,534.448120 664.383484,534.515198 656.345459,534.951538 
	C652.062866,535.184082 647.882996,536.960632 643.589783,537.437134 
	C638.666443,537.983582 633.645813,537.643127 628.717773,538.164307 
	C627.246704,538.319824 625.680969,539.879944 624.704651,541.200317 
	C624.349792,541.680237 625.329468,543.586792 626.137573,544.416443 
	C631.942322,550.376099 638.045959,556.054077 643.688721,562.159729 
	C649.270691,568.199646 655.547607,571.910278 664.096130,571.071594 
	C666.758606,570.810425 669.554138,571.174316 672.207031,571.680603 
	C680.865845,573.332886 689.485352,575.190735 698.125732,576.941406 
	C698.767883,577.071533 699.467957,576.898743 700.119812,577.001526 
	C705.566895,577.860229 711.141418,578.279785 716.415527,579.763000 
	C721.721191,581.255127 726.647461,584.043457 731.880981,585.856689 
	C741.151550,589.068604 750.558472,591.885254 759.851929,595.033447 
	C766.871887,597.411438 774.263184,599.223816 780.656799,602.783081 
	C788.311035,607.044128 796.623047,609.776672 804.148987,614.348450 
	C812.639709,619.506409 821.954346,623.287659 830.734131,627.996826 
	C837.556335,631.656006 844.057617,635.908813 850.800720,639.722412 
	C854.073792,641.573425 857.574158,643.022705 862.000732,645.147949 
	C862.000732,642.260254 862.000732,640.343384 862.000732,638.426514 
	C862.000732,511.118286 862.001160,383.810028 861.996826,256.501801 
	C861.996765,255.004013 862.263733,253.397797 861.815308,252.036896 
	C861.299438,250.471313 860.433167,248.719772 859.176331,247.759003 
	C856.008179,245.337250 852.621216,243.166489 849.168335,241.159256 
	C838.594116,235.012238 828.005432,228.884750 817.297729,222.975571 
	C813.601074,220.935501 809.538269,219.558807 804.999573,217.601746 
	C804.999573,227.867203 804.999573,237.183609 804.999573,247.500000 
M503.507874,518.992065 
	C499.029022,514.518799 494.721893,509.851105 489.986298,505.668549 
	C488.107269,504.009003 485.277527,503.425903 482.054810,501.982941 
	C482.054810,527.190674 481.976746,550.665466 482.172455,574.137878 
	C482.192596,576.554199 483.847260,578.956848 484.716339,581.292847 
	C493.840393,574.857544 501.899292,569.372620 509.718109,563.564514 
	C513.019104,561.112366 516.360779,558.360474 518.675964,555.041626 
	C520.731018,552.095764 521.227173,548.104919 522.714233,544.707947 
	C524.157837,541.410339 523.605774,538.921021 521.002075,536.421997 
	C515.234314,530.886108 509.661896,525.146667 503.507874,518.992065 
z"/>
<path fill="#5C6E9B" opacity="1.000000" stroke="none" 
	d="
M779.940857,374.000000 
	C779.940857,425.664825 779.941895,476.829620 779.939453,527.994446 
	C779.939148,534.380798 778.188538,535.228455 772.060242,532.685913 
	C766.668762,530.449097 760.948975,529.012451 755.517639,526.860352 
	C750.388062,524.827820 745.498413,522.194397 740.390137,520.101257 
	C738.726807,519.419739 736.657349,519.808594 734.859863,519.361206 
	C728.129333,517.686157 721.486328,515.626343 714.711670,514.170837 
	C707.967712,512.721924 701.134827,511.562378 694.283142,510.787170 
	C690.250305,510.330902 686.100952,511.029022 682.011169,510.925293 
	C674.902527,510.745026 667.800842,510.305115 660.693481,510.051758 
	C655.474792,509.865753 650.067383,508.897919 645.076477,509.912872 
	C638.624939,511.224854 632.055298,511.586914 625.644836,513.105042 
	C617.852844,514.950378 609.986267,516.591553 602.064636,517.694214 
	C600.256775,517.945862 597.403076,516.111389 596.212524,514.410095 
	C591.607605,507.829346 585.011047,504.358948 577.586670,503.564789 
	C572.458984,503.016235 566.804199,504.220001 561.867310,505.987579 
	C557.248413,507.641266 554.631531,507.748199 550.972351,504.013702 
	C540.452209,493.277161 529.740234,482.728760 519.191040,472.020386 
	C513.845398,466.594086 508.688019,460.982300 504.206085,456.256317 
	C508.817169,447.565887 512.913269,439.999054 516.856689,432.353455 
	C519.035278,428.129578 522.661377,423.743958 522.586975,419.484467 
	C522.481873,413.468201 527.139771,409.180817 526.309448,402.975281 
	C525.666626,398.171112 527.261292,392.906219 528.575134,388.038879 
	C530.605164,380.518494 530.606750,373.280975 528.518555,365.732178 
	C527.153931,360.799255 527.185669,355.488586 526.458313,350.366119 
	C526.204895,348.580841 525.583313,346.843018 525.074402,345.099762 
	C523.388550,339.325012 522.191772,333.338501 519.848999,327.841644 
	C516.755798,320.584167 513.389893,313.285065 508.994843,306.778168 
	C502.757538,297.543671 495.492126,289.001831 488.609650,280.208130 
	C488.050110,279.493195 486.887817,279.259979 486.296936,278.557800 
	C484.314514,276.201813 481.837982,274.589386 481.897491,270.526154 
	C482.234253,247.531921 482.091248,224.530106 482.022980,201.531143 
	C482.014374,198.627533 482.473724,196.466095 484.980682,194.365952 
	C495.542511,185.517960 505.470581,175.879883 516.333313,167.434937 
	C525.549561,160.270065 535.687683,154.280289 545.501465,147.899033 
	C550.985168,144.333282 556.400208,140.527374 562.275208,137.730957 
	C570.080505,134.015717 578.327759,131.236816 586.337891,127.940659 
	C590.085205,126.398659 593.689514,124.510887 597.425598,122.938950 
	C598.741333,122.385353 600.286743,122.405212 601.673218,121.984947 
	C603.410583,121.458321 605.054871,120.601372 606.807495,120.154076 
	C609.042358,119.583710 611.342407,119.262878 613.621460,118.876259 
	C614.101074,118.794899 614.826111,119.118172 615.075928,118.878128 
	C620.045105,114.103279 626.865356,116.548073 632.570557,114.422806 
	C635.410950,113.364716 638.900574,114.111732 642.087524,113.903999 
	C645.363708,113.690460 648.626648,113.074554 651.899353,113.042778 
	C663.231201,112.932724 674.572937,112.734268 685.895203,113.081795 
	C695.482788,113.376068 705.048950,114.375137 714.622925,115.085182 
	C715.098511,115.120461 715.559082,115.370926 716.024902,115.526321 
	C722.404907,117.654732 728.747314,119.909248 735.188171,121.833954 
	C737.032288,122.385040 739.665466,121.219398 741.072571,122.149040 
	C747.098022,126.129898 754.386780,126.465515 760.691528,129.507339 
	C763.242920,130.738312 765.884949,131.780060 768.454773,132.974609 
	C772.243896,134.735962 776.005371,136.556915 779.940857,138.429672 
	C779.940857,216.858643 779.940857,295.179321 779.940857,374.000000 
z"/>
<path fill="#5C6E9B" opacity="1.000000" stroke="none" 
	d="
M458.173279,578.986938 
	C456.368744,579.064697 454.022308,579.915771 452.848694,579.093323 
	C445.855682,574.192566 439.262512,568.722473 432.284912,563.798096 
	C425.033813,558.680603 417.562134,553.865723 410.064850,549.110962 
	C405.489044,546.209106 400.744568,543.554871 395.962830,541.001038 
	C391.235138,538.476074 386.413391,536.113098 381.546783,533.865479 
	C373.928528,530.347168 366.289429,526.862854 358.554718,523.612732 
	C355.002686,522.120178 351.253479,521.009888 347.503876,520.093933 
	C341.277924,518.572998 334.978973,517.351074 328.711731,515.998779 
	C320.965729,514.327393 313.245239,512.522156 305.462646,511.043823 
	C302.517822,510.484436 299.425995,510.484436 296.408966,510.556122 
	C281.403503,510.912720 266.318970,512.477661 251.429153,511.371185 
	C243.198303,510.759552 236.127380,516.077271 228.127701,513.677673 
	C223.221542,517.868530 216.129288,514.725952 211.114258,518.731628 
	C210.465866,519.249512 209.149750,518.846191 208.191971,519.074951 
	C197.763016,521.565796 187.753967,525.249329 177.893478,529.445435 
	C173.751190,531.208191 169.248810,532.109192 164.955948,533.539490 
	C162.320282,534.417603 161.162750,533.483643 161.072083,530.871765 
	C161.025848,529.540100 161.059143,528.205566 161.059128,526.872375 
	C161.058884,399.550720 161.114441,272.228973 160.882111,144.907730 
	C160.871353,139.019394 163.376450,136.362747 167.935013,134.595398 
	C174.135864,132.191315 180.527863,130.278900 186.720963,127.856682 
	C190.745880,126.282463 194.545975,124.139435 198.487701,122.340881 
	C199.201889,122.015022 200.142059,122.226059 200.929764,122.012039 
	C203.459351,121.324791 205.939163,120.435547 208.490234,119.851723 
	C210.770905,119.329773 213.122086,119.118896 215.439087,118.751328 
	C216.363419,118.604691 217.352570,118.571144 218.186646,118.202217 
	C221.861145,116.576912 225.320953,114.345398 229.721390,115.886307 
	C230.760498,116.250175 232.202911,115.317696 233.481598,115.168953 
	C237.421661,114.710625 241.368195,114.295609 245.319931,113.952934 
	C249.590454,113.582611 253.866684,113.103493 258.145752,113.041824 
	C267.642883,112.904961 277.153076,112.731209 286.639862,113.073341 
	C296.551575,113.430794 306.442383,114.372414 316.341339,115.072388 
	C316.830444,115.106972 317.317017,115.248390 317.793457,115.380760 
	C325.823883,117.611923 334.016876,119.392731 341.837830,122.207161 
	C350.631165,125.371513 359.219940,129.195343 367.655975,133.236862 
	C376.621185,137.531906 385.388153,142.265305 394.081482,147.095673 
	C400.960388,150.917892 407.972992,154.671829 414.256134,159.355087 
	C424.572449,167.044540 434.404022,175.392151 444.323303,183.603195 
	C449.266235,187.694901 453.950500,192.099075 458.551392,196.794724 
	C458.159210,197.511398 457.967407,197.795273 457.625732,198.454926 
	C457.387421,216.248276 457.292328,233.665787 457.237274,251.083435 
	C457.235291,251.710632 457.627869,252.339081 457.919128,253.224701 
	C458.056610,253.654343 458.111481,253.826218 458.166351,253.998093 
	C456.626373,254.567093 454.779663,255.984818 453.599548,255.558258 
	C448.479950,253.707870 443.655731,251.040237 438.536438,249.188721 
	C429.841675,246.044052 421.114746,243.123871 411.638855,242.826981 
	C406.665985,242.671173 401.698029,239.998184 396.803131,240.209122 
	C386.885529,240.636475 376.930695,241.766144 367.160675,243.539719 
	C359.839508,244.868729 352.727478,247.554901 345.578186,249.680710 
	C332.186401,253.662674 321.092621,261.169739 310.208923,269.082520 
	C298.881042,277.318237 288.897644,287.181030 281.335632,299.152649 
	C276.505737,306.798920 271.675995,314.474152 267.425415,322.445251 
	C265.285461,326.458252 265.110321,331.551483 262.840698,335.454987 
	C259.655090,340.933929 260.898468,347.258911 258.218292,352.871826 
	C256.554352,356.356506 257.016785,361.009247 257.070465,365.130585 
	C257.193848,374.606842 258.987885,384.286713 257.556458,393.487640 
	C256.375946,401.076050 261.688660,406.733368 260.606506,414.180176 
	C260.019135,418.222260 263.927765,423.026550 266.104706,427.337433 
	C269.925873,434.904358 273.863129,442.417877 277.957825,449.840057 
	C282.622742,458.295868 288.373138,466.067108 295.423462,472.609894 
	C302.814453,479.468781 310.455414,486.218353 318.761902,491.878754 
	C325.093628,496.193481 332.598480,498.813690 339.656677,502.022278 
	C342.558411,503.341370 345.640869,504.275452 348.670654,505.297211 
	C353.340027,506.871918 357.976074,508.597534 362.736816,509.833282 
	C366.762329,510.878143 370.922882,511.513763 375.063263,511.975983 
	C379.979675,512.524841 384.942627,513.021606 389.877869,512.957458 
	C399.027374,512.838745 408.183624,512.466125 417.308777,511.807068 
	C419.513580,511.647827 421.571411,509.210938 423.759369,509.104279 
	C432.444641,508.680939 439.619995,503.548798 447.872833,501.837738 
	C450.343933,501.325409 452.528809,499.544586 454.959137,498.658447 
	C455.737762,498.374512 456.884003,499.098907 457.982819,499.738953 
	C458.103577,500.115906 457.996765,500.045898 457.812012,500.411560 
	C457.420624,502.249878 457.036499,503.722260 457.033936,505.195282 
	C456.995941,527.177734 456.990662,549.160339 457.044952,571.142700 
	C457.048981,572.768555 457.567322,574.393066 457.911133,576.386597 
	C458.041565,577.498962 458.107422,578.242920 458.173279,578.986938 
z"/>
<path fill="#A88756" opacity="1.000000" stroke="none" 
	d="
M281.842407,309.667511 
	C287.971527,300.713165 293.627686,291.909973 302.084290,285.241669 
	C308.055084,280.533478 313.020813,274.504242 319.162720,270.073120 
	C324.770844,266.027130 331.326111,263.277008 337.523743,260.071350 
	C341.347961,258.093292 345.205475,256.136047 349.193817,254.531937 
	C352.660065,253.137817 356.278290,251.540375 359.921082,251.270218 
	C373.368927,250.272934 386.378662,244.846252 400.098450,247.071503 
	C404.850372,247.842239 409.473389,249.402756 414.161041,250.579514 
	C414.953156,250.778351 415.774567,250.860916 416.582733,250.995468 
	C422.647583,252.005295 429.066650,252.092270 434.690216,254.251358 
	C442.173920,257.124634 449.018005,261.649933 456.180603,265.381714 
	C458.378265,266.526733 460.956665,267.058533 462.948975,268.457520 
	C468.414246,272.295074 474.058167,276.022522 478.891357,280.578613 
	C484.672577,286.028412 490.153870,291.942200 494.910156,298.295044 
	C500.344849,305.554047 505.441650,313.210571 509.544739,321.274658 
	C512.641907,327.361816 513.931824,334.365997 516.052612,340.953522 
	C517.051208,344.055298 518.179932,347.116272 519.133301,350.231354 
	C523.348022,364.003082 521.785339,378.178955 522.000732,392.229218 
	C522.010864,392.890442 522.093811,393.651550 521.816040,394.200836 
	C518.339600,401.073944 519.305664,409.037811 516.495056,416.024536 
	C513.809937,422.699249 511.047760,429.386353 507.689880,435.735016 
	C504.211212,442.312103 499.796936,448.391205 496.225861,454.925293 
	C495.526489,456.205017 496.173492,459.190582 497.285187,460.332001 
	C504.277374,467.511261 511.564270,474.404266 518.777161,481.367676 
	C528.044983,490.315033 537.402161,499.171387 546.579895,508.209991 
	C549.929260,511.508606 552.874634,515.217468 555.600403,518.284729 
	C560.518188,515.312988 564.924255,512.270630 569.683838,509.954865 
	C571.685608,508.980896 574.825806,508.688751 576.765320,509.577515 
	C581.297913,511.654602 586.118835,513.923523 589.594727,517.357849 
	C622.521057,549.890442 655.265991,582.608337 687.845154,615.488770 
	C692.325012,620.010010 696.172546,626.047424 694.735413,632.623657 
	C693.550293,638.046448 690.821106,643.260132 686.253174,647.441162 
	C677.623291,655.339905 669.607056,663.907166 661.289001,672.149414 
	C658.400146,675.011902 655.193359,677.295105 650.786987,677.006470 
	C644.651611,676.604553 638.012085,678.615845 632.752197,673.878662 
	C628.670288,670.202393 624.960449,666.114014 621.069092,662.224976 
	C608.952698,650.115662 596.780823,638.061462 584.721130,625.895935 
	C572.869629,613.940552 561.149292,601.855347 549.331177,589.866699 
	C543.459595,583.910400 537.801025,577.690735 531.479675,572.248108 
	C526.540466,567.995483 526.239807,562.702576 526.064575,557.111755 
	C525.889160,551.514160 527.483826,546.731873 532.173889,543.088989 
	C533.851501,541.785950 534.049988,540.006531 531.872681,537.911987 
	C521.121277,527.569031 510.628326,516.956421 500.088715,506.394501 
	C491.344452,497.631744 482.684631,488.784546 473.901154,480.061584 
	C473.325165,479.489563 471.702301,479.170074 471.090302,479.558563 
	C464.081207,484.007202 457.389343,489.002167 450.158966,493.038300 
	C445.771667,495.487396 440.589264,496.507568 435.771851,498.191895 
	C429.908783,500.241882 424.179077,502.872742 418.160828,504.224182 
	C411.942719,505.620483 405.448090,506.348389 399.073578,506.353699 
	C389.430634,506.361755 379.771484,505.678040 370.152466,504.885010 
	C367.048737,504.629120 364.065857,503.045532 360.994598,502.187866 
	C359.805481,501.855896 358.464447,502.040588 357.296051,501.666718 
	C352.481201,500.125946 347.586151,498.742157 342.949554,496.764099 
	C338.197388,494.736664 333.663635,492.171814 329.124298,489.678345 
	C324.568756,487.175964 319.747345,484.945465 315.720001,481.743591 
	C309.767548,477.011169 303.857849,472.000275 298.942810,466.243225 
	C292.452911,458.641357 286.636444,450.405273 281.120117,442.052460 
	C277.499451,436.570099 274.499359,430.571899 272.008881,424.482635 
	C270.014984,419.607513 269.225250,414.242493 267.856628,409.106750 
	C267.607025,408.170319 267.098175,407.306213 266.785889,406.382751 
	C265.348236,402.131348 263.195190,398.260834 264.726135,393.200256 
	C265.625061,390.228790 263.722076,386.513763 263.662292,383.122894 
	C263.580261,378.473236 264.054077,373.813965 264.284485,369.158569 
	C264.446045,365.894684 264.629700,362.631409 264.739777,359.365723 
	C264.780426,358.160400 264.341583,356.873260 264.627197,355.752289 
	C266.814270,347.167847 268.558167,338.408691 271.573364,330.116028 
	C274.125336,323.097473 278.193573,316.630219 281.842407,309.667511 
M479.087982,410.901093 
	C482.277283,404.077850 484.450287,396.961151 484.990265,389.424927 
	C485.189972,386.638123 484.985626,383.824493 485.035553,381.024353 
	C485.120087,376.284363 485.761475,371.492126 485.265137,366.817810 
	C484.420410,358.862244 483.123047,350.934509 479.293518,343.678497 
	C475.775452,337.012665 473.132721,329.768921 468.875153,323.632660 
	C459.095581,309.537720 446.033630,299.031311 430.404877,291.849915 
	C427.148895,290.353821 423.773712,289.083771 420.376099,287.939026 
	C417.197052,286.867920 413.905945,286.133118 410.685852,285.177185 
	C409.935303,284.954407 409.276672,284.111511 408.568939,284.102722 
	C401.055756,284.009369 393.541138,283.996124 386.027161,284.027649 
	C382.529022,284.042297 378.845490,283.532990 375.573578,284.441284 
	C369.320099,286.177307 363.270233,288.678192 357.199860,291.027039 
	C354.720398,291.986481 352.296661,293.198090 350.039520,294.603271 
	C343.449188,298.706055 336.507935,302.420288 330.554810,307.320221 
	C325.024323,311.872345 320.272583,317.415253 316.366028,323.656036 
	C311.323273,331.711853 305.882538,339.464661 303.914825,349.037537 
	C303.568939,350.720398 301.543427,352.050018 301.169556,353.736877 
	C300.599487,356.308960 301.211395,359.154022 300.580261,361.699371 
	C299.027374,367.962067 297.053589,374.168518 298.051331,380.698334 
	C298.854004,385.951660 300.215698,391.117462 301.129333,396.356995 
	C301.491913,398.436432 300.549316,401.970398 301.511993,402.512115 
	C306.456268,405.294159 303.041138,411.441681 307.535767,414.954681 
	C311.133026,417.766357 311.819824,424.009644 314.686310,428.108948 
	C320.715790,436.731476 326.790771,445.468933 336.079865,451.093018 
	C343.005707,455.286255 349.771027,459.856720 357.062134,463.296173 
	C362.135040,465.689209 367.979156,466.446228 373.477081,467.940125 
	C375.828125,468.578949 378.152374,469.336792 380.529053,469.856384 
	C384.180573,470.654633 387.910339,472.034058 391.527802,471.821320 
	C396.523621,471.527557 401.407837,469.439392 406.407715,469.089722 
	C415.977386,468.420349 424.811829,465.097565 433.096130,461.033295 
	C441.020233,457.145660 448.530212,451.878082 455.133331,445.994965 
	C460.917999,440.841034 464.820251,433.633331 470.246338,427.999634 
	C474.815338,423.255829 476.156067,417.159821 479.087982,410.901093 
z"/>
<path fill="#5C6E9B" opacity="1.000000" stroke="none" 
	d="
M137.831314,558.915100 
	C138.260101,563.506226 141.341629,566.036987 145.377121,565.823181 
	C149.575836,565.600708 153.770142,564.026367 157.823334,562.628418 
	C163.686111,560.606384 169.451416,558.287842 175.197128,555.945618 
	C178.533020,554.585876 181.659439,552.682800 185.039429,551.467163 
	C190.642685,549.451965 196.359665,547.745789 202.056122,545.998779 
	C207.829163,544.228455 213.572205,542.295776 219.442932,540.924683 
	C226.936569,539.174438 234.510742,536.936646 242.111938,536.670288 
	C254.160995,536.247986 265.939850,532.257507 278.092804,534.080750 
	C283.395020,534.876160 288.636139,536.076477 293.936188,536.889648 
	C296.620667,537.301514 299.373932,537.270813 302.097046,537.423828 
	C306.932709,537.695496 311.812866,536.758118 316.143341,540.640076 
	C317.663544,542.002808 321.534576,540.348389 324.018433,541.103638 
	C332.127777,543.569153 340.089996,546.517456 348.114197,549.264404 
	C350.624390,550.123718 353.160797,550.906921 355.669159,551.771362 
	C359.800293,553.195129 364.039490,554.387634 368.009613,556.174255 
	C372.441071,558.168457 376.620850,560.721130 380.914734,563.022217 
	C383.992676,564.671631 387.057587,566.347168 390.165833,567.937805 
	C393.355438,569.570007 395.445740,571.889771 396.421509,576.379028 
	C386.846375,574.246521 378.396149,572.276184 369.896637,570.548035 
	C368.253174,570.213806 366.369049,571.175781 364.678375,570.942383 
	C356.603241,569.827942 348.560486,568.480774 340.496307,567.283081 
	C338.863586,567.040527 337.188263,567.018005 335.532104,567.011597 
	C328.367798,566.983826 321.171295,566.572510 314.046783,567.105835 
	C304.758545,567.801147 295.526428,569.250610 286.273193,570.400269 
	C285.467712,570.500427 284.662903,571.019104 283.895081,570.947021 
	C274.111389,570.027100 264.909119,573.328552 255.432938,574.563232 
	C246.200348,575.766174 237.279526,577.722778 228.360443,580.184326 
	C223.738831,581.459900 218.821167,581.633667 214.148544,582.764954 
	C211.577805,583.387390 209.289658,585.094666 206.783218,586.082275 
	C201.218658,588.274841 195.608917,590.355042 189.993652,592.415833 
	C186.828918,593.577271 183.605042,594.576599 180.427841,595.705383 
	C171.581314,598.848328 162.445724,601.378479 153.974258,605.329834 
	C140.775879,611.485962 127.951836,618.467407 115.118790,625.377014 
	C104.373970,631.162231 93.848801,637.354980 83.209557,643.337402 
	C82.101143,643.960693 80.878693,644.381165 78.999619,645.207947 
	C78.999619,642.450745 78.999619,640.355713 78.999619,638.260620 
	C78.999565,511.799957 79.108704,385.338959 78.741676,258.879364 
	C78.718422,250.868805 82.021004,247.233383 87.987213,243.881760 
	C93.833359,240.597595 99.299454,236.629730 105.181488,233.418243 
	C114.791481,228.171341 124.593712,223.275223 134.353897,218.307846 
	C134.975220,217.991608 135.932205,218.334869 136.885620,219.150757 
	C137.019592,331.515472 136.997879,443.100800 137.017670,554.686096 
	C137.017914,556.095825 137.548355,557.505432 137.831314,558.915100 
z"/>
<path fill="#5C6E9B" opacity="1.000000" stroke="none" 
	d="
M804.999573,247.000000 
	C804.999573,237.183609 804.999573,227.867203 804.999573,217.601746 
	C809.538269,219.558807 813.601074,220.935501 817.297729,222.975571 
	C828.005432,228.884750 838.594116,235.012238 849.168335,241.159256 
	C852.621216,243.166489 856.008179,245.337250 859.176331,247.759003 
	C860.433167,248.719772 861.299438,250.471313 861.815308,252.036896 
	C862.263733,253.397797 861.996765,255.004013 861.996826,256.501801 
	C862.001160,383.810028 862.000732,511.118286 862.000732,638.426514 
	C862.000732,640.343384 862.000732,642.260254 862.000732,645.147949 
	C857.574158,643.022705 854.073792,641.573425 850.800720,639.722412 
	C844.057617,635.908813 837.556335,631.656006 830.734131,627.996826 
	C821.954346,623.287659 812.639709,619.506409 804.148987,614.348450 
	C796.623047,609.776672 788.311035,607.044128 780.656799,602.783081 
	C774.263184,599.223816 766.871887,597.411438 759.851929,595.033447 
	C750.558472,591.885254 741.151550,589.068604 731.880981,585.856689 
	C726.647461,584.043457 721.721191,581.255127 716.415527,579.763000 
	C711.141418,578.279785 705.566895,577.860229 700.119812,577.001526 
	C699.467957,576.898743 698.767883,577.071533 698.125732,576.941406 
	C689.485352,575.190735 680.865845,573.332886 672.207031,571.680603 
	C669.554138,571.174316 666.758606,570.810425 664.096130,571.071594 
	C655.547607,571.910278 649.270691,568.199646 643.688721,562.159729 
	C638.045959,556.054077 631.942322,550.376099 626.137573,544.416443 
	C625.329468,543.586792 624.349792,541.680237 624.704651,541.200317 
	C625.680969,539.879944 627.246704,538.319824 628.717773,538.164307 
	C633.645813,537.643127 638.666443,537.983582 643.589783,537.437134 
	C647.882996,536.960632 652.062866,535.184082 656.345459,534.951538 
	C664.383484,534.515198 672.477478,534.448120 680.512451,534.885193 
	C684.820862,535.119568 689.471313,538.308899 693.222107,537.324524 
	C698.482422,535.944092 703.003845,537.603882 707.699219,538.190613 
	C713.914246,538.967346 719.979919,540.981018 726.090149,542.539917 
	C730.308472,543.616150 734.513062,544.756226 738.689270,545.985107 
	C746.276611,548.217651 754.055969,550.001587 761.352722,552.963867 
	C769.549316,556.291443 777.294189,560.728882 785.246887,564.660645 
	C795.559570,569.759094 804.994202,563.693359 804.995056,551.939941 
	C805.002686,450.459961 804.999573,348.979980 804.999573,247.000000 
z"/>
<path fill="#5A6F99" opacity="1.000000" stroke="none" 
	d="
M503.758850,519.241150 
	C509.661896,525.146667 515.234314,530.886108 521.002075,536.421997 
	C523.605774,538.921021 524.157837,541.410339 522.714233,544.707947 
	C521.227173,548.104919 520.731018,552.095764 518.675964,555.041626 
	C516.360779,558.360474 513.019104,561.112366 509.718109,563.564514 
	C501.899292,569.372620 493.840393,574.857544 484.716339,581.292847 
	C483.847260,578.956848 482.192596,576.554199 482.172455,574.137878 
	C481.976746,550.665466 482.054810,527.190674 482.054810,501.982941 
	C485.277527,503.425903 488.107269,504.009003 489.986298,505.668549 
	C494.721893,509.851105 499.029022,514.518799 503.758850,519.241150 
z"/>
<path fill="#0000FF" opacity="1.000000" stroke="none" 
	d="
M137.901215,558.456360 
	C137.548355,557.505432 137.017914,556.095825 137.017670,554.686096 
	C136.997879,443.100800 137.019592,331.515472 137.102264,219.465378 
	C137.444199,220.384903 137.964966,221.769150 137.965317,223.153549 
	C137.993317,334.768219 137.980713,446.382935 137.901215,558.456360 
z"/>
<path fill="#0000FF" opacity="1.000000" stroke="none" 
	d="
M458.509644,578.726440 
	C458.107422,578.242920 458.041565,577.498962 457.968689,575.917114 
	C457.973358,550.068176 457.985077,525.057007 457.996765,500.045898 
	C457.996765,500.045898 458.103577,500.115906 458.138763,500.062592 
	C458.447235,500.727692 458.959564,501.446167 458.959320,502.164520 
	C458.951324,527.598328 458.895294,553.032104 458.509644,578.726440 
z"/>
<path fill="#0000FF" opacity="1.000000" stroke="none" 
	d="
M457.775574,198.079132 
	C457.967407,197.795273 458.159210,197.511398 458.591248,197.128937 
	C458.835754,215.846802 458.840057,234.663269 458.505371,253.738922 
	C458.111481,253.826218 458.056610,253.654343 457.980560,252.761017 
	C457.898132,234.052780 457.836853,216.065948 457.775574,198.079132 
z"/>
<path fill="#408080" opacity="1.000000" stroke="none" 
	d="
M457.812012,500.411560 
	C457.985077,525.057007 457.973358,550.068176 457.904083,575.548767 
	C457.567322,574.393066 457.048981,572.768555 457.044952,571.142700 
	C456.990662,549.160339 456.995941,527.177734 457.033936,505.195282 
	C457.036499,503.722260 457.420624,502.249878 457.812012,500.411560 
z"/>
<path fill="#408080" opacity="1.000000" stroke="none" 
	d="
M457.625732,198.454926 
	C457.836853,216.065948 457.898132,234.052780 457.897980,252.503265 
	C457.627869,252.339081 457.235291,251.710632 457.237274,251.083435 
	C457.292328,233.665787 457.387421,216.248276 457.625732,198.454926 
z"/>
<path fill="#000000" opacity="1.000000" stroke="none" 
	d="
M479.039551,411.299622 
	C476.156067,417.159821 474.815338,423.255829 470.246338,427.999634 
	C464.820251,433.633331 460.917999,440.841034 455.133331,445.994965 
	C448.530212,451.878082 441.020233,457.145660 433.096130,461.033295 
	C424.811829,465.097565 415.977386,468.420349 406.407715,469.089722 
	C401.407837,469.439392 396.523621,471.527557 391.527802,471.821320 
	C387.910339,472.034058 384.180573,470.654633 380.529053,469.856384 
	C378.152374,469.336792 375.828125,468.578949 373.477081,467.940125 
	C367.979156,466.446228 362.135040,465.689209 357.062134,463.296173 
	C349.771027,459.856720 343.005707,455.286255 336.079865,451.093018 
	C326.790771,445.468933 320.715790,436.731476 314.686310,428.108948 
	C311.819824,424.009644 311.133026,417.766357 307.535767,414.954681 
	C303.041138,411.441681 306.456268,405.294159 301.511993,402.512115 
	C300.549316,401.970398 301.491913,398.436432 301.129333,396.356995 
	C300.215698,391.117462 298.854004,385.951660 298.051331,380.698334 
	C297.053589,374.168518 299.027374,367.962067 300.580261,361.699371 
	C301.211395,359.154022 300.599487,356.308960 301.169556,353.736877 
	C301.543427,352.050018 303.568939,350.720398 303.914825,349.037537 
	C305.882538,339.464661 311.323273,331.711853 316.366028,323.656036 
	C320.272583,317.415253 325.024323,311.872345 330.554810,307.320221 
	C336.507935,302.420288 343.449188,298.706055 350.039520,294.603271 
	C352.296661,293.198090 354.720398,291.986481 357.199860,291.027039 
	C363.270233,288.678192 369.320099,286.177307 375.573578,284.441284 
	C378.845490,283.532990 382.529022,284.042297 386.027161,284.027649 
	C393.541138,283.996124 401.055756,284.009369 408.568939,284.102722 
	C409.276672,284.111511 409.935303,284.954407 410.685852,285.177185 
	C413.905945,286.133118 417.197052,286.867920 420.376099,287.939026 
	C423.773712,289.083771 427.148895,290.353821 430.404877,291.849915 
	C446.033630,299.031311 459.095581,309.537720 468.875153,323.632660 
	C473.132721,329.768921 475.775452,337.012665 479.293518,343.678497 
	C483.123047,350.934509 484.420410,358.862244 485.265137,366.817810 
	C485.761475,371.492126 485.120087,376.284363 485.035553,381.024353 
	C484.985626,383.824493 485.189972,386.638123 484.990265,389.424927 
	C484.450287,396.961151 482.277283,404.077850 479.039551,411.299622 
z"/>
</svg>